<svg version="1.1" xmlns="http://www.w3.org/2000/svg" viewBox="0 0 1904.138177706719 2599.5876321070036" width="5712.414533120157" height="7798.762896321011">
  <!-- svg-source:excalidraw -->
  
  <defs>
    <style class="style-fonts">
      @font-face {
        font-family: "Virgil";
        src: url("https://excalidraw.com/Virgil.woff2");
      }
      @font-face {
        font-family: "Cascadia";
        src: url("https://excalidraw.com/Cascadia.woff2");
      }
      @font-face {
        font-family: "Assistant";
        src: url("https://excalidraw.com/Assistant-Regular.woff2");
      }
    </style>
    
  </defs>
  <rect x="0" y="0" width="1904.138177706719" height="2599.5876321070036" fill="#ffffff"></rect><g stroke-linecap="round" transform="translate(10 95.72100466032083) rotate(0 942.0690888533595 1246.9333137233414)"><path d="M32 0 C651.06 -4.93, 1268.56 -4.36, 1852.14 0 M32 0 C554.53 0.93, 1076.81 1.19, 1852.14 0 M1852.14 0 C1873.7 -0.55, 1885.63 8.87, 1884.14 32 M1852.14 0 C1874.72 -1.01, 1884 11.82, 1884.14 32 M1884.14 32 C1887.16 726.45, 1888.6 1421.16, 1884.14 2461.87 M1884.14 32 C1878.08 544.98, 1877.9 1058.06, 1884.14 2461.87 M1884.14 2461.87 C1884.79 2484.03, 1875.02 2493.6, 1852.14 2493.87 M1884.14 2461.87 C1883.72 2483.82, 1871.2 2491.78, 1852.14 2493.87 M1852.14 2493.87 C1163.46 2499.03, 473.9 2499.07, 32 2493.87 M1852.14 2493.87 C1296.74 2486.47, 741.64 2486.77, 32 2493.87 M32 2493.87 C12.43 2493.45, -1.78 2484.58, 0 2461.87 M32 2493.87 C12.84 2492.08, 1.19 2485.39, 0 2461.87 M0 2461.87 C2.87 1670.49, 2.47 879.25, 0 32 M0 2461.87 C-9.27 1632.17, -9.92 802.4, 0 32 M0 32 C1.1 12.14, 10 0.19, 32 0 M0 32 C0.31 10.5, 8.7 2.13, 32 0" stroke="#1e1e1e" stroke-width="2" fill="none"></path></g><g transform="translate(28.606742876177123 10) rotate(0 158.43594360351562 22.5)"><text x="0" y="31.536" font-family="Virgil, Segoe UI Emoji" font-size="36px" fill="#1e1e1e" text-anchor="start" style="white-space: pre;" direction="ltr" dominant-baseline="alphabetic">Scaffold Command</text></g><g stroke-linecap="round" transform="translate(612.4579403706007 226.6845148315619) rotate(0 73.15780184379696 57.035893648301965)"><path d="M28.52 0 C55.88 1.42, 81.58 0.63, 117.8 0 M28.52 0 C47.45 -0.34, 64.76 -0.45, 117.8 0 M117.8 0 C136.89 -0.53, 145.01 9.6, 146.32 28.52 M117.8 0 C139.06 1.59, 147.98 10.31, 146.32 28.52 M146.32 28.52 C144.82 41.73, 145.32 58.08, 146.32 85.55 M146.32 28.52 C146.74 47.28, 145.09 67.28, 146.32 85.55 M146.32 85.55 C146.36 105.39, 136.82 115.9, 117.8 114.07 M146.32 85.55 C145.98 105.43, 138.5 112.46, 117.8 114.07 M117.8 114.07 C97.62 114.13, 75.2 114.68, 28.52 114.07 M117.8 114.07 C97.83 115.25, 77.77 115.02, 28.52 114.07 M28.52 114.07 C8.43 113.06, -1.77 104.85, 0 85.55 M28.52 114.07 C10.7 115.1, -0.78 106.28, 0 85.55 M0 85.55 C0.31 69.23, -0.49 56.24, 0 28.52 M0 85.55 C-0.21 70.83, 0.55 55.96, 0 28.52 M0 28.52 C-0.41 7.61, 8.55 -1.6, 28.52 0 M0 28.52 C0.84 7.44, 8.6 -0.06, 28.52 0" stroke="#1e1e1e" stroke-width="2" fill="none"></path></g><g transform="translate(645.365772731976 258.72040847986386) rotate(0 40.249969482421875 25)"><text x="40.249969482421875" y="17.52" font-family="Virgil, Segoe UI Emoji" font-size="20px" fill="#1e1e1e" text-anchor="middle" style="white-space: pre;" direction="ltr" dominant-baseline="alphabetic">Start </text><text x="40.249969482421875" y="42.519999999999996" font-family="Virgil, Segoe UI Emoji" font-size="20px" fill="#1e1e1e" text-anchor="middle" style="white-space: pre;" direction="ltr" dominant-baseline="alphabetic">command</text></g><g stroke-linecap="round"><g transform="translate(692.3178541567286 346.31157308634715) rotate(0 2.0585794841751976 73.8741473631114)"><path d="M0.29 0.55 C0.77 25.05, 2.86 122.3, 3.65 146.77 M-1.02 -0.21 C-0.8 24.44, 1.5 123.02, 2.45 147.8" stroke="#1e1e1e" stroke-width="2" fill="none"></path></g><g transform="translate(692.3178541567286 346.31157308634715) rotate(0 2.0585794841751976 73.8741473631114)"><path d="M-6.79 124.57 C-2.59 132.12, -1.81 142.72, 2.45 147.8 M-6.79 124.57 C-3.48 130.91, -2.71 137.79, 2.45 147.8" stroke="#1e1e1e" stroke-width="2" fill="none"></path></g><g transform="translate(692.3178541567286 346.31157308634715) rotate(0 2.0585794841751976 73.8741473631114)"><path d="M10.31 124.06 C8.35 131.84, 2.98 142.62, 2.45 147.8 M10.31 124.06 C9.05 130.51, 5.26 137.53, 2.45 147.8" stroke="#1e1e1e" stroke-width="2" fill="none"></path></g></g><mask></mask><g stroke-linecap="round" transform="translate(596.7722091780429 1165.4964766073813) rotate(0 97.31466105930485 95.5)"><path d="M80.77 0.56 C92.13 -2.55, 106.69 0.36, 118.84 3.25 C130.99 6.14, 143.59 11.15, 153.67 17.92 C163.75 24.69, 172.79 33.63, 179.34 43.86 C185.89 54.1, 190.76 67.24, 192.97 79.32 C195.19 91.4, 195.16 104.42, 192.62 116.36 C190.09 128.31, 185.11 141.01, 177.75 151 C170.4 160.99, 159.2 169.72, 148.47 176.3 C137.74 182.89, 125.43 188.58, 113.38 190.5 C101.32 192.42, 88.21 190.55, 76.13 187.82 C64.04 185.08, 51.13 180.9, 40.87 174.11 C30.61 167.32, 20.97 157.57, 14.55 147.1 C8.13 136.63, 4.39 123.53, 2.34 111.29 C0.29 99.05, -0.21 85.53, 2.24 73.67 C4.68 61.81, 9.82 49.92, 17 40.12 C24.19 30.33, 34.4 21.47, 45.35 14.91 C56.3 8.35, 76.11 2.82, 82.71 0.78 C89.31 -1.27, 84.59 1, 84.93 2.65 M107.87 0.74 C119.68 0.51, 131.32 6.53, 142.2 12.2 C153.08 17.87, 165.18 25.34, 173.16 34.74 C181.13 44.14, 186.66 56.78, 190.06 68.59 C193.46 80.4, 194.5 93.81, 193.55 105.62 C192.6 117.42, 190.06 129.02, 184.38 139.42 C178.69 149.82, 169.01 160.26, 159.44 168.03 C149.86 175.8, 139.05 182.37, 126.93 186.06 C114.81 189.75, 99.38 191.22, 86.72 190.19 C74.06 189.17, 61.9 185.54, 50.99 179.92 C40.08 174.3, 29.27 165.98, 21.28 156.47 C13.29 146.96, 6.44 134.74, 3.07 122.86 C-0.31 110.98, -0.13 97.46, 1.02 85.19 C2.17 72.91, 4.35 59.86, 9.98 49.21 C15.62 38.56, 24.81 28.67, 34.83 21.29 C44.86 13.91, 58.34 8.16, 70.14 4.92 C81.94 1.68, 99.68 2.16, 105.66 1.87 C111.64 1.58, 106.04 1.73, 106 3.18" stroke="#1e1e1e" stroke-width="2" fill="none"></path></g><g transform="translate(639.3150525559431 1223.467779004066) rotate(0 54.9599609375 37.5)"><text x="54.9599609375" y="17.52" font-family="Virgil, Segoe UI Emoji" font-size="20px" fill="#1e1e1e" text-anchor="middle" style="white-space: pre;" direction="ltr" dominant-baseline="alphabetic">Generator </text><text x="54.9599609375" y="42.519999999999996" font-family="Virgil, Segoe UI Emoji" font-size="20px" fill="#1e1e1e" text-anchor="middle" style="white-space: pre;" direction="ltr" dominant-baseline="alphabetic">process </text><text x="54.9599609375" y="67.52" font-family="Virgil, Segoe UI Emoji" font-size="20px" fill="#1e1e1e" text-anchor="middle" style="white-space: pre;" direction="ltr" dominant-baseline="alphabetic">data</text></g><g stroke-linecap="round"><g transform="translate(697.2837736743527 1016.7001863630749) rotate(0 0.595874451811369 69.82796099418272)"><path d="M-1.11 -0.02 C-1.01 23.25, -0.37 116.44, 0.19 139.76 M0.51 -1.08 C1.01 22.39, 2.12 117.61, 2.38 141.35" stroke="#1e1e1e" stroke-width="2" fill="none"></path></g><g transform="translate(697.2837736743527 1016.7001863630749) rotate(0 0.595874451811369 69.82796099418272)"><path d="M-6.44 117.96 C-4.1 122.6, -1.55 132.29, 2.38 141.35 M-6.44 117.96 C-4.13 125.29, -0.61 133.46, 2.38 141.35" stroke="#1e1e1e" stroke-width="2" fill="none"></path></g><g transform="translate(697.2837736743527 1016.7001863630749) rotate(0 0.595874451811369 69.82796099418272)"><path d="M10.66 117.76 C8.45 122.3, 6.46 132.04, 2.38 141.35 M10.66 117.76 C7.45 125.11, 5.46 133.35, 2.38 141.35" stroke="#1e1e1e" stroke-width="2" fill="none"></path></g></g><mask></mask><g stroke-linecap="round" transform="translate(853.2674206709162 1330.8107191583995) rotate(0 86.69426116738782 63.65924901986136)"><path d="M31.83 0 C70.39 0.38, 111.25 0.37, 141.56 0 M31.83 0 C65.6 0.62, 100.06 0.58, 141.56 0 M141.56 0 C162.78 0.39, 174.38 10.43, 173.39 31.83 M141.56 0 C163.26 0.35, 173.96 9, 173.39 31.83 M173.39 31.83 C172.55 56.85, 171.59 83.95, 173.39 95.49 M173.39 31.83 C172.97 49.53, 173.83 68.45, 173.39 95.49 M173.39 95.49 C175.21 115.91, 163.03 128.3, 141.56 127.32 M173.39 95.49 C174.64 114.64, 164.26 126.44, 141.56 127.32 M141.56 127.32 C103.72 128.09, 62.56 126.5, 31.83 127.32 M141.56 127.32 C107.24 128.46, 71.03 128.2, 31.83 127.32 M31.83 127.32 C10.35 125.64, -0.75 115.44, 0 95.49 M31.83 127.32 C12.66 128.58, 2.27 118.4, 0 95.49 M0 95.49 C0.25 76.79, 1.54 54.62, 0 31.83 M0 95.49 C0.97 81.91, 1.01 69.37, 0 31.83 M0 31.83 C-1.47 8.61, 12.14 0.12, 31.83 0 M0 31.83 C-0.95 12.36, 11.37 0.01, 31.83 0" stroke="#1e1e1e" stroke-width="2" fill="none"></path></g><g transform="translate(893.3217358544173 1369.4699681782608) rotate(0 46.63994598388672 25)"><text x="46.63994598388672" y="17.52" font-family="Virgil, Segoe UI Emoji" font-size="20px" fill="#1e1e1e" text-anchor="middle" style="white-space: pre;" direction="ltr" dominant-baseline="alphabetic">Create </text><text x="46.63994598388672" y="42.519999999999996" font-family="Virgil, Segoe UI Emoji" font-size="20px" fill="#1e1e1e" text-anchor="middle" style="white-space: pre;" direction="ltr" dominant-baseline="alphabetic">resources</text></g><g stroke-linecap="round"><g transform="translate(936.8004589291731 1252.6559540989206) rotate(0 0.9001859788143065 33.67708917465109)"><path d="M1.17 -1.01 C1.43 10.33, 2.31 55.63, 2.29 66.96 M0.33 1.08 C0.41 12.68, 1.06 57.13, 1.6 68.29" stroke="#1e1e1e" stroke-width="2" fill="none"></path></g><g transform="translate(936.8004589291731 1252.6559540989206) rotate(0 0.9001859788143065 33.67708917465109)"><path d="M-7.63 45.05 C-6.18 54.19, -1.82 60.57, 1.6 68.29 M-7.63 45.05 C-5.89 50.54, -2.51 56.46, 1.6 68.29" stroke="#1e1e1e" stroke-width="2" fill="none"></path></g><g transform="translate(936.8004589291731 1252.6559540989206) rotate(0 0.9001859788143065 33.67708917465109)"><path d="M9.47 44.56 C4.73 54.04, 2.9 60.6, 1.6 68.29 M9.47 44.56 C6.67 50.13, 5.52 56.18, 1.6 68.29" stroke="#1e1e1e" stroke-width="2" fill="none"></path></g></g><mask></mask><g stroke-linecap="round" transform="translate(1482.5092962593787 1328.4526056881596) rotate(0 86.69426116738771 63.65924901986136)"><path d="M31.83 0 C61.56 -1.43, 95.52 -0.97, 141.56 0 M31.83 0 C60.48 -1.9, 91.4 -0.24, 141.56 0 M141.56 0 C164.03 -1.48, 171.76 12.6, 173.39 31.83 M141.56 0 C161.91 1.79, 174.03 10.74, 173.39 31.83 M173.39 31.83 C175.15 43.61, 175.42 59.12, 173.39 95.49 M173.39 31.83 C173.81 48.05, 174.72 63.4, 173.39 95.49 M173.39 95.49 C174.25 116.78, 164.61 129.08, 141.56 127.32 M173.39 95.49 C172.26 117.08, 162.88 125.04, 141.56 127.32 M141.56 127.32 C103.4 127.66, 66.52 127.33, 31.83 127.32 M141.56 127.32 C115.2 127.5, 89.72 126.29, 31.83 127.32 M31.83 127.32 C9.99 125.71, -1.01 115.76, 0 95.49 M31.83 127.32 C9.09 125.87, 0.06 115.71, 0 95.49 M0 95.49 C0.5 78.74, 0.32 61.78, 0 31.83 M0 95.49 C0.07 70.9, -0.04 46.2, 0 31.83 M0 31.83 C-0.4 10.18, 12.3 0.49, 31.83 0 M0 31.83 C1.68 9.05, 9.86 1.39, 31.83 0" stroke="#1e1e1e" stroke-width="2" fill="none"></path></g><g transform="translate(1499.7136129687588 1342.111854708021) rotate(0 69.48994445800781 50)"><text x="69.48994445800781" y="17.52" font-family="Virgil, Segoe UI Emoji" font-size="20px" fill="#1e1e1e" text-anchor="middle" style="white-space: pre;" direction="ltr" dominant-baseline="alphabetic">Check target </text><text x="69.48994445800781" y="42.519999999999996" font-family="Virgil, Segoe UI Emoji" font-size="20px" fill="#1e1e1e" text-anchor="middle" style="white-space: pre;" direction="ltr" dominant-baseline="alphabetic">paths (where </text><text x="69.48994445800781" y="67.52" font-family="Virgil, Segoe UI Emoji" font-size="20px" fill="#1e1e1e" text-anchor="middle" style="white-space: pre;" direction="ltr" dominant-baseline="alphabetic">files will be </text><text x="69.48994445800781" y="92.52" font-family="Virgil, Segoe UI Emoji" font-size="20px" fill="#1e1e1e" text-anchor="middle" style="white-space: pre;" direction="ltr" dominant-baseline="alphabetic">created)</text></g><g stroke-linecap="round"><g transform="translate(1566.2578035887982 1251.2978406286807) rotate(0 0.8668428956739263 33.67708917465109)"><path d="M-0.73 -0.39 C-0.1 10.95, 2.52 57.35, 2.8 68.47 M1.09 -1.65 C1.75 9.36, 2.02 55.48, 2.41 66.93" stroke="#1e1e1e" stroke-width="2" fill="none"></path></g><g transform="translate(1566.2578035887982 1251.2978406286807) rotate(0 0.8668428956739263 33.67708917465109)"><path d="M-6.58 43.6 C-5.22 50.48, -0.75 52.45, 2.41 66.93 M-6.58 43.6 C-3.83 47.73, -3.36 54.4, 2.41 66.93" stroke="#1e1e1e" stroke-width="2" fill="none"></path></g><g transform="translate(1566.2578035887982 1251.2978406286807) rotate(0 0.8668428956739263 33.67708917465109)"><path d="M10.52 43.28 C8.18 50.13, 8.94 52.17, 2.41 66.93 M10.52 43.28 C9.66 47.61, 6.5 54.35, 2.41 66.93" stroke="#1e1e1e" stroke-width="2" fill="none"></path></g></g><mask></mask><g stroke-linecap="round" transform="translate(1077.054615191132 336.1155748131288) rotate(0 81.73190759313343 55.485208606775785)"><path d="M27.74 0 C59.49 -0.32, 91.95 -0.71, 135.72 0 M27.74 0 C69.62 0.03, 110.49 0.44, 135.72 0 M135.72 0 C155.47 -0.04, 164.67 10.67, 163.46 27.74 M135.72 0 C155.79 -0.21, 162.51 10.42, 163.46 27.74 M163.46 27.74 C164.53 42.07, 163.47 55.72, 163.46 83.23 M163.46 27.74 C163.38 46.83, 163.35 68.22, 163.46 83.23 M163.46 83.23 C165.24 102.01, 153.58 111.82, 135.72 110.97 M163.46 83.23 C162.06 99.95, 156.3 112.97, 135.72 110.97 M135.72 110.97 C97.74 112.38, 58.86 111.14, 27.74 110.97 M135.72 110.97 C106.59 111.08, 78.62 112.79, 27.74 110.97 M27.74 110.97 C9.25 111.08, 0.26 99.92, 0 83.23 M27.74 110.97 C9.62 111.85, -1.8 101.93, 0 83.23 M0 83.23 C-1.14 71.12, 1.49 61.51, 0 27.74 M0 83.23 C0.53 69.36, 1.05 57.01, 0 27.74 M0 27.74 C-1.9 9.94, 8.84 1.08, 27.74 0 M0 27.74 C2.24 10.47, 11.42 -0.41, 27.74 0" stroke="#1e1e1e" stroke-width="2" fill="none"></path></g><g transform="translate(1086.976578631433 354.1007834199046) rotate(0 71.80994415283203 37.50000000000003)"><text x="71.80994415283203" y="17.52" font-family="Virgil, Segoe UI Emoji" font-size="20px" fill="#1e1e1e" text-anchor="middle" style="white-space: pre;" direction="ltr" dominant-baseline="alphabetic">Get template </text><text x="71.80994415283203" y="42.519999999999996" font-family="Virgil, Segoe UI Emoji" font-size="20px" fill="#1e1e1e" text-anchor="middle" style="white-space: pre;" direction="ltr" dominant-baseline="alphabetic">data inside </text><text x="71.80994415283203" y="67.52" font-family="Virgil, Segoe UI Emoji" font-size="20px" fill="#1e1e1e" text-anchor="middle" style="white-space: pre;" direction="ltr" dominant-baseline="alphabetic">meta</text></g><g stroke-linecap="round"><g transform="translate(1157.5006386110829 277.72177149721335) rotate(0 0.03566396782332504 25.693907485097412)"><path d="M-1.19 0.79 C-1.18 9.1, 1.13 42.14, 1.23 50.62 M0.39 0.16 C0.23 8.54, 1.24 42.92, 0.89 51.75" stroke="#1e1e1e" stroke-width="2" fill="none"></path></g><g transform="translate(1157.5006386110829 277.72177149721335) rotate(0 0.03566396782332504 25.693907485097412)"><path d="M-7.63 28.25 C-2.77 39.63, -1.97 45.97, 0.89 51.75 M-7.63 28.25 C-5.28 36.51, -2.22 42.62, 0.89 51.75" stroke="#1e1e1e" stroke-width="2" fill="none"></path></g><g transform="translate(1157.5006386110829 277.72177149721335) rotate(0 0.03566396782332504 25.693907485097412)"><path d="M9.47 28.27 C7.51 39.48, 1.48 45.8, 0.89 51.75 M9.47 28.27 C6.28 36.59, 3.81 42.7, 0.89 51.75" stroke="#1e1e1e" stroke-width="2" fill="none"></path></g></g><mask></mask><g stroke-linecap="round" transform="translate(833.266337372444 340.38655037771895) rotate(0 81.73190759313343 55.485208606775814)"><path d="M27.74 0 C64.06 -1.5, 100.62 -0.36, 135.72 0 M27.74 0 C60.33 -0.1, 90.59 -0.41, 135.72 0 M135.72 0 C154.08 1.29, 164.18 10.93, 163.46 27.74 M135.72 0 C154.19 -2.12, 163.02 8.99, 163.46 27.74 M163.46 27.74 C163.88 45.03, 165.6 67.15, 163.46 83.23 M163.46 27.74 C163.6 49.43, 164.08 71.56, 163.46 83.23 M163.46 83.23 C161.74 101.5, 155.75 110.94, 135.72 110.97 M163.46 83.23 C163.75 102.01, 155.05 112.89, 135.72 110.97 M135.72 110.97 C96.36 109.6, 57.9 112.89, 27.74 110.97 M135.72 110.97 C105.57 111.62, 77.02 111.51, 27.74 110.97 M27.74 110.97 C7.81 112.17, 1.03 101.58, 0 83.23 M27.74 110.97 C7.57 109.65, 0.79 100.91, 0 83.23 M0 83.23 C-1.36 65.9, 0.15 48.89, 0 27.74 M0 83.23 C-0.88 67.04, -1.06 49.75, 0 27.74 M0 27.74 C1.68 8.03, 8.86 -1.27, 27.74 0 M0 27.74 C1.17 7.17, 8.9 0.48, 27.74 0" stroke="#1e1e1e" stroke-width="2" fill="none"></path></g><g transform="translate(869.8582760935069 370.87175898449476) rotate(0 45.13996887207031 25)"><text x="45.13996887207031" y="17.52" font-family="Virgil, Segoe UI Emoji" font-size="20px" fill="#1e1e1e" text-anchor="middle" style="white-space: pre;" direction="ltr" dominant-baseline="alphabetic">Validate </text><text x="45.13996887207031" y="42.519999999999996" font-family="Virgil, Segoe UI Emoji" font-size="20px" fill="#1e1e1e" text-anchor="middle" style="white-space: pre;" direction="ltr" dominant-baseline="alphabetic">template</text></g><g stroke-linecap="round"><g transform="translate(913.7123607923945 282.00067238798647) rotate(0 0.03570789085142678 25.75136609992373)"><path d="M0.4 -0.06 C0.32 8.42, -0.83 42.87, -0.74 51.43 M-0.85 -1.14 C-0.52 7.49, 1.3 43.98, 1.55 52.92" stroke="#1e1e1e" stroke-width="2" fill="none"></path></g><g transform="translate(913.7123607923945 282.00067238798647) rotate(0 0.03570789085142678 25.75136609992373)"><path d="M-7.95 29.8 C-5.32 34.81, -2.72 44.06, 1.55 52.92 M-7.95 29.8 C-5.51 37.04, -2.4 43.79, 1.55 52.92" stroke="#1e1e1e" stroke-width="2" fill="none"></path></g><g transform="translate(913.7123607923945 282.00067238798647) rotate(0 0.03570789085142678 25.75136609992373)"><path d="M9.14 29.1 C7.04 34.37, 4.92 43.81, 1.55 52.92 M9.14 29.1 C6.73 36.46, 5 43.41, 1.55 52.92" stroke="#1e1e1e" stroke-width="2" fill="none"></path></g></g><mask></mask><g stroke-linecap="round"><g transform="translate(1254.1572584472513 276.6512918947623) rotate(0 -241.46815921475684 1.5437375580044659)"><path d="M0.6 -0.1 C-79.95 0.42, -403.38 1.8, -483.85 2.43 M-0.54 -1.2 C-80.68 -0.48, -401.27 3.15, -481.61 3.62" stroke="#1e1e1e" stroke-width="2" fill="none"></path></g><g transform="translate(1254.1572584472513 276.6512918947623) rotate(0 -241.46815921475684 1.5437375580044659)"><path d="M-458.2 -5.14 C-464.43 -4.28, -471.37 0.73, -481.61 3.62 M-458.2 -5.14 C-465.8 -1.2, -475.09 0.06, -481.61 3.62" stroke="#1e1e1e" stroke-width="2" fill="none"></path></g><g transform="translate(1254.1572584472513 276.6512918947623) rotate(0 -241.46815921475684 1.5437375580044659)"><path d="M-458.04 11.96 C-464.22 8.42, -471.2 9.04, -481.61 3.62 M-458.04 11.96 C-465.64 9.93, -474.98 5.22, -481.61 3.62" stroke="#1e1e1e" stroke-width="2" fill="none"></path></g></g><mask></mask><g stroke-linecap="round"><g transform="translate(1632.0746027835876 1248.4257874726743) rotate(0 -412.05087090285883 1.6706545089102747)"><path d="M-0.02 1.02 C-137.32 1.66, -687.19 2.32, -824.71 2.88 M-1.49 0.51 C-138.32 1.39, -685.43 3.83, -822.32 4.17" stroke="#1e1e1e" stroke-width="2" fill="none"></path></g><g transform="translate(1632.0746027835876 1248.4257874726743) rotate(0 -412.05087090285883 1.6706545089102747)"><path d="M-798.86 -4.47 C-802.53 -3.53, -810.31 -2.3, -822.32 4.17 M-798.86 -4.47 C-807.27 -0.61, -817.65 2.55, -822.32 4.17" stroke="#1e1e1e" stroke-width="2" fill="none"></path></g><g transform="translate(1632.0746027835876 1248.4257874726743) rotate(0 -412.05087090285883 1.6706545089102747)"><path d="M-798.79 12.63 C-802.34 9.7, -810.15 7.06, -822.32 4.17 M-798.79 12.63 C-807.28 9.89, -817.69 6.44, -822.32 4.17" stroke="#1e1e1e" stroke-width="2" fill="none"></path></g></g><mask></mask><g stroke-linecap="round" transform="translate(1070.2191397775287 1327.3282789629975) rotate(0 86.69426116738782 67.5)"><path d="M32 0 C76.29 0.47, 118.58 1.94, 141.39 0 M32 0 C55.32 1, 76.38 -0.04, 141.39 0 M141.39 0 C161.85 0.95, 171.89 11.42, 173.39 32 M141.39 0 C161.91 -0.33, 171.32 9.62, 173.39 32 M173.39 32 C172.38 51.63, 171.83 72.9, 173.39 103 M173.39 32 C172.81 50.59, 174.09 69.7, 173.39 103 M173.39 103 C173.45 123.35, 161.2 134.89, 141.39 135 M173.39 103 C174.77 123.25, 161.35 136.41, 141.39 135 M141.39 135 C105.76 137.31, 67.54 136.92, 32 135 M141.39 135 C100.64 135.54, 57.2 135.99, 32 135 M32 135 C10.85 136.97, -1.52 124.53, 0 103 M32 135 C12.6 134.93, -0.9 123.61, 0 103 M0 103 C1.05 80.22, -0.31 58.47, 0 32 M0 103 C-0.46 87.67, -0.15 72.77, 0 32 M0 32 C-1.95 11.32, 12.24 0.63, 32 0 M0 32 C0.71 8.45, 8.84 0.84, 32 0" stroke="#1e1e1e" stroke-width="2" fill="none"></path></g><g transform="translate(1080.2034705249946 1332.3282789629975) rotate(0 76.70993041992188 62.5)"><text x="76.70993041992188" y="17.52" font-family="Virgil, Segoe UI Emoji" font-size="20px" fill="#1e1e1e" text-anchor="middle" style="white-space: pre;" direction="ltr" dominant-baseline="alphabetic">Replace </text><text x="76.70993041992188" y="42.519999999999996" font-family="Virgil, Segoe UI Emoji" font-size="20px" fill="#1e1e1e" text-anchor="middle" style="white-space: pre;" direction="ltr" dominant-baseline="alphabetic">reserved </text><text x="76.70993041992188" y="67.52" font-family="Virgil, Segoe UI Emoji" font-size="20px" fill="#1e1e1e" text-anchor="middle" style="white-space: pre;" direction="ltr" dominant-baseline="alphabetic">keywords from </text><text x="76.70993041992188" y="92.52" font-family="Virgil, Segoe UI Emoji" font-size="20px" fill="#1e1e1e" text-anchor="middle" style="white-space: pre;" direction="ltr" dominant-baseline="alphabetic">template (path,</text><text x="76.70993041992188" y="117.52" font-family="Virgil, Segoe UI Emoji" font-size="20px" fill="#1e1e1e" text-anchor="middle" style="white-space: pre;" direction="ltr" dominant-baseline="alphabetic">name, etc)</text></g><g stroke-linecap="round"><g transform="translate(1153.7521780357856 1252.1735139035186) rotate(0 0.9001859788143065 33.67708917465109)"><path d="M0.87 -1.11 C1.31 9.84, 2.38 55.12, 2.67 66.59 M-0.14 0.92 C0.23 11.94, 1.78 56.95, 2.17 67.72" stroke="#1e1e1e" stroke-width="2" fill="none"></path></g><g transform="translate(1153.7521780357856 1252.1735139035186) rotate(0 0.9001859788143065 33.67708917465109)"><path d="M-7.2 44.54 C-6.09 52.85, -2.71 59.61, 2.17 67.72 M-7.2 44.54 C-4.76 52.75, -1.98 60.31, 2.17 67.72" stroke="#1e1e1e" stroke-width="2" fill="none"></path></g><g transform="translate(1153.7521780357856 1252.1735139035186) rotate(0 0.9001859788143065 33.67708917465109)"><path d="M9.89 43.94 C5.9 52.55, 4.16 59.5, 2.17 67.72 M9.89 43.94 C6.67 52.22, 3.81 59.98, 2.17 67.72" stroke="#1e1e1e" stroke-width="2" fill="none"></path></g></g><mask></mask><g stroke-linecap="round" transform="translate(579.7781073708456 508.6410130248973) rotate(0.693572054645578 113.49399779841053 103.33374454894022)"><path d="M142.5 26 C153.42 36.88, 164.68 49.62, 198.49 78 M142.5 26 C157.83 39.58, 172.32 51.77, 198.49 78 M198.49 78 C227.2 105.73, 227.66 104.84, 198.49 130 M198.49 78 C225.09 105.4, 227.36 102.39, 198.49 130 M198.49 130 C180.11 148.61, 159.13 165.66, 142.5 180.67 M198.49 130 C177.16 148.17, 156.21 168.51, 142.5 180.67 M142.5 180.67 C114.9 205.38, 112.18 208.22, 85.5 180.67 M142.5 180.67 C115.65 205.75, 113.51 208.85, 85.5 180.67 M85.5 180.67 C74.37 168.29, 62.75 159.39, 28.5 130 M85.5 180.67 C65.63 163.91, 45.03 145.51, 28.5 130 M28.5 130 C1.21 103.35, -0.65 103.08, 28.5 78 M28.5 130 C-0.85 102.77, -1.58 103.63, 28.5 78 M28.5 78 C42.59 65.07, 52.55 56.38, 85.5 26 M28.5 78 C43.86 64.49, 57.38 50.4, 85.5 26 M85.5 26 C115.18 1.01, 115.17 1.48, 142.5 26 M85.5 26 C114.06 2.08, 115.43 -0.72, 142.5 26" stroke="#1e1e1e" stroke-width="2" fill="none"></path></g><g transform="translate(642.5351465532542 599.3078852993674) rotate(0.693572054645578 50.489959716796875 12.5)"><text x="50.489959716796875" y="17.52" font-family="Virgil, Segoe UI Emoji" font-size="20px" fill="#1e1e1e" text-anchor="middle" style="white-space: pre;" direction="ltr" dominant-baseline="alphabetic">Validated?</text></g><g stroke-linecap="round"><g transform="translate(687.5144112729181 727.262318224957) rotate(0 0.23293054511032096 43.57499707856624)"><path d="M-0.69 -0.47 C-0.8 14.24, -0.58 73.08, -0.27 87.78 M1.15 -1.76 C1.4 12.64, 2.11 71.42, 2.06 85.99" stroke="#2f9e44" stroke-width="2" fill="none"></path></g><g transform="translate(687.5144112729181 727.262318224957) rotate(0 0.23293054511032096 43.57499707856624)"><path d="M-6.62 62.55 C-4.62 69.15, 0.1 79.37, 2.06 85.99 M-6.62 62.55 C-3.84 71.14, -1.76 78.01, 2.06 85.99" stroke="#2f9e44" stroke-width="2" fill="none"></path></g><g transform="translate(687.5144112729181 727.262318224957) rotate(0 0.23293054511032096 43.57499707856624)"><path d="M10.48 62.45 C6.81 68.98, 5.86 79.24, 2.06 85.99 M10.48 62.45 C7.32 71.15, 3.46 78.05, 2.06 85.99" stroke="#2f9e44" stroke-width="2" fill="none"></path></g></g><mask></mask><g transform="translate(598.0823736237287 740.0400500507005) rotate(0 38.21873751553619 12.529103889425585)"><text x="0" y="17.560792011418897" font-family="Virgil, Segoe UI Emoji" font-size="20.046566223080934px" fill="#2f9e44" text-anchor="start" style="white-space: pre;" direction="ltr" dominant-baseline="alphabetic">Success</text></g><g transform="translate(804.9606047664115 586.5515863052888) rotate(0 17.22998809814453 12.5)"><text x="0" y="17.52" font-family="Virgil, Segoe UI Emoji" font-size="20px" fill="#e03131" text-anchor="start" style="white-space: pre;" direction="ltr" dominant-baseline="alphabetic">Fail</text></g><g stroke-linecap="round" transform="translate(938.4083064819924 584.2483949869561) rotate(0 98.96032844421302 32.1324114236881)"><path d="M16.07 0 C61.02 -1.14, 103.46 0.54, 181.85 0 M181.85 0 C194.54 1.52, 199.54 3.46, 197.92 16.07 M197.92 16.07 C196.74 27.33, 198.07 36.52, 197.92 48.2 M197.92 48.2 C198.25 57.94, 192.25 65.63, 181.85 64.26 M181.85 64.26 C137.13 65.64, 90.52 63.83, 16.07 64.26 M16.07 64.26 C7.08 62.49, -1.2 59.37, 0 48.2 M0 48.2 C-1.77 37.53, -0.12 27.13, 0 16.07 M0 16.07 C-0.8 4.02, 3.5 1.48, 16.07 0" stroke="#e03131" stroke-width="2.5" fill="none" stroke-dasharray="8 10"></path></g><g transform="translate(979.5486886371427 603.8808064106443) rotate(0 57.8199462890625 12.5)"><text x="57.8199462890625" y="17.52" font-family="Virgil, Segoe UI Emoji" font-size="20px" fill="#e03131" text-anchor="middle" style="white-space: pre;" direction="ltr" dominant-baseline="alphabetic">Throw error</text></g><g stroke-linecap="round"><g transform="translate(817.2990556607547 616.5826830883996) rotate(0 53.905639507013234 -1.097364726673959)"><path d="M-0.19 -0.02 C17.77 -0.3, 90.92 -2.38, 108.73 -2.64 M-1.75 -1.08 C16.04 -1.11, 89.81 -0.92, 108.27 -1.34" stroke="#e03131" stroke-width="2" fill="none"></path></g><g transform="translate(817.2990556607547 616.5826830883996) rotate(0 53.905639507013234 -1.097364726673959)"><path d="M84.85 7.4 C93.86 5.62, 102.13 -1.14, 108.27 -1.34 M84.85 7.4 C92.04 3.83, 101.91 0.82, 108.27 -1.34" stroke="#e03131" stroke-width="2" fill="none"></path></g><g transform="translate(817.2990556607547 616.5826830883996) rotate(0 53.905639507013234 -1.097364726673959)"><path d="M84.7 -9.7 C93.64 -4.92, 101.95 -5.13, 108.27 -1.34 M84.7 -9.7 C92.02 -7.28, 101.94 -4.29, 108.27 -1.34" stroke="#e03131" stroke-width="2" fill="none"></path></g></g><mask></mask><g stroke-linecap="round" transform="translate(589.3428610443002 831.4507029181282) rotate(0 100.99210594744943 82.28485215834633)"><path d="M32 0 C86.41 1.36, 139.6 1.32, 169.98 0 M32 0 C75.78 -1.73, 121.37 -0.74, 169.98 0 M169.98 0 C191.89 0.08, 200.74 10.49, 201.98 32 M169.98 0 C190.97 1.58, 202.84 9.95, 201.98 32 M201.98 32 C202.4 64.4, 199.18 95.39, 201.98 132.57 M201.98 32 C201.63 60.25, 201.64 89.37, 201.98 132.57 M201.98 132.57 C201.55 153.89, 191.46 164.74, 169.98 164.57 M201.98 132.57 C201.78 152.12, 192.49 162.89, 169.98 164.57 M169.98 164.57 C119.34 167.56, 69.07 165.54, 32 164.57 M169.98 164.57 C119.1 162.91, 67.07 164.25, 32 164.57 M32 164.57 C10.82 165.98, 1.99 153.5, 0 132.57 M32 164.57 C12.04 163.34, -0.78 152.95, 0 132.57 M0 132.57 C1.13 97.72, 0.63 59, 0 32 M0 132.57 C-0.15 108.97, -1.58 83.42, 0 32 M0 32 C0.53 9.92, 9.87 -0.83, 32 0 M0 32 C0.18 11.11, 10.8 -0.4, 32 0" stroke="#1e1e1e" stroke-width="2" fill="none"></path></g><g transform="translate(603.2050460322771 876.2355550764744) rotate(0 87.12992095947266 37.50000000000006)"><text x="87.12992095947266" y="17.52" font-family="Virgil, Segoe UI Emoji" font-size="20px" fill="#1e1e1e" text-anchor="middle" style="white-space: pre;" direction="ltr" dominant-baseline="alphabetic">Call generator </text><text x="87.12992095947266" y="42.519999999999996" font-family="Virgil, Segoe UI Emoji" font-size="20px" fill="#1e1e1e" text-anchor="middle" style="white-space: pre;" direction="ltr" dominant-baseline="alphabetic">passing template </text><text x="87.12992095947266" y="67.52" font-family="Virgil, Segoe UI Emoji" font-size="20px" fill="#1e1e1e" text-anchor="middle" style="white-space: pre;" direction="ltr" dominant-baseline="alphabetic">preset</text></g><g stroke-linecap="round"><g transform="translate(359.3976566991048 131.6617563936324) rotate(0 2.481890655698578 653.6972070659974)"><path d="M0.98 1.12 C1.82 219.29, 4.31 1090.85, 4.79 1308.43 M0.03 0.66 C0.73 218.58, 2.73 1089.05, 3.75 1306.85" stroke="#1e1e1e" stroke-width="2" fill="none"></path></g></g><mask></mask><g stroke-linecap="round" transform="translate(99.48915581343408 267.21768280881184) rotate(0 90.39069999327137 73.18550967423585)"><path d="M32 0 C66.8 1.7, 101.61 -0.36, 148.78 0 M32 0 C71.69 0.35, 112.11 -0.3, 148.78 0 M148.78 0 C170.34 1.06, 181.64 10.13, 180.78 32 M148.78 0 C171.47 -1.73, 181.96 10.79, 180.78 32 M180.78 32 C182.82 50.03, 180.07 64.65, 180.78 114.37 M180.78 32 C181.77 58.35, 181.08 85.67, 180.78 114.37 M180.78 114.37 C179.74 135.65, 169.04 146.51, 148.78 146.37 M180.78 114.37 C180.4 136.97, 168.26 144.7, 148.78 146.37 M148.78 146.37 C123.8 144.47, 98.15 146.43, 32 146.37 M148.78 146.37 C103.74 146.59, 59.11 146.52, 32 146.37 M32 146.37 C12.58 146.97, -0.6 134.05, 0 114.37 M32 146.37 C8.52 147.91, 0.84 135.71, 0 114.37 M0 114.37 C-1.2 96.55, -0.23 81.28, 0 32 M0 114.37 C0.68 86.36, -0.46 57.63, 0 32 M0 32 C1 8.73, 11.4 -1.5, 32 0 M0 32 C0.27 12.15, 12.53 -1.65, 32 0" stroke="#1e1e1e" stroke-width="2" fill="none"></path></g><g transform="translate(132.97990005719373 315.4031924830477) rotate(0 56.89995574951172 25)"><text x="56.89995574951172" y="17.52" font-family="Virgil, Segoe UI Emoji" font-size="20px" fill="#1e1e1e" text-anchor="middle" style="white-space: pre;" direction="ltr" dominant-baseline="alphabetic">Action /</text><text x="56.89995574951172" y="42.519999999999996" font-family="Virgil, Segoe UI Emoji" font-size="20px" fill="#1e1e1e" text-anchor="middle" style="white-space: pre;" direction="ltr" dominant-baseline="alphabetic">Method call</text></g><g stroke-linecap="round" transform="translate(95.36485262166207 461.5942555028068) rotate(0 90.39069999327137 73.18550967423585)"><path d="M32 0 C57.16 -2.14, 85.59 1.37, 148.78 0 M148.78 0 C171.85 1.64, 182.18 9.4, 180.78 32 M180.78 32 C179.83 47.33, 180.06 65.01, 180.78 114.37 M180.78 114.37 C178.98 134.29, 169.52 146.4, 148.78 146.37 M148.78 146.37 C114.84 145.73, 81.79 144.28, 32 146.37 M32 146.37 C11.18 147.27, 0.34 136.74, 0 114.37 M0 114.37 C2.29 95.27, 1.33 71.55, 0 32 M0 32 C-1.84 11.23, 10.72 1.79, 32 0" stroke="#e03131" stroke-width="2.5" fill="none" stroke-dasharray="8 10"></path></g><g transform="translate(160.57557519794125 522.2797651770427) rotate(0 25.179977416992188 12.5)"><text x="25.179977416992188" y="17.52" font-family="Virgil, Segoe UI Emoji" font-size="20px" fill="#e03131" text-anchor="middle" style="white-space: pre;" direction="ltr" dominant-baseline="alphabetic">Error</text></g><g stroke-linecap="round" transform="translate(90.03164436477164 643.5144307026242) rotate(0 96.88606008071781 93.0823504973751)"><path d="M121.25 23.5 C134.7 38.66, 150.11 49.17, 169.52 70.5 M121.25 23.5 C138.33 40.57, 155.23 57.36, 169.52 70.5 M169.52 70.5 C192.65 93.72, 195.58 95.81, 169.52 117.5 M169.52 70.5 C192.42 95, 194.1 93.35, 169.52 117.5 M169.52 117.5 C158.62 125.92, 148.55 137.84, 121.25 162.66 M169.52 117.5 C156.06 128.86, 144.13 140.87, 121.25 162.66 M121.25 162.66 C95.86 184.82, 96.32 184.93, 72.75 162.66 M121.25 162.66 C96.3 186.17, 95.31 186.34, 72.75 162.66 M72.75 162.66 C62.64 153.59, 50.52 143.24, 24.25 117.5 M72.75 162.66 C55.32 144.77, 36.95 128.5, 24.25 117.5 M24.25 117.5 C1.06 95.46, -1.64 92.64, 24.25 70.5 M24.25 117.5 C-0.5 95.28, 0.22 96.23, 24.25 70.5 M24.25 70.5 C41.89 54.66, 56.46 39.87, 72.75 23.5 M24.25 70.5 C41.59 54.17, 59.54 36.34, 72.75 23.5 M72.75 23.5 C96.61 -0.18, 96.23 -1.46, 121.25 23.5 M72.75 23.5 C97.18 1.58, 95.72 -1.41, 121.25 23.5" stroke="#1e1e1e" stroke-width="2" fill="none"></path></g><g transform="translate(153.62470644858752 711.5556059513117) rotate(0 33.34996795654297 25)"><text x="33.34996795654297" y="17.52" font-family="Virgil, Segoe UI Emoji" font-size="20px" fill="#1e1e1e" text-anchor="middle" style="white-space: pre;" direction="ltr" dominant-baseline="alphabetic">Flow </text><text x="33.34996795654297" y="42.519999999999996" font-family="Virgil, Segoe UI Emoji" font-size="20px" fill="#1e1e1e" text-anchor="middle" style="white-space: pre;" direction="ltr" dominant-baseline="alphabetic">control</text></g><g stroke-linecap="round" transform="translate(89.15001194159117 885.8564825410883) rotate(0 91.97697045164512 92.43114473025321)"><path d="M57.18 7.16 C66.98 1.49, 81.88 -0.5, 93.55 -0.31 C105.22 -0.13, 116.35 3.69, 127.19 8.26 C138.04 12.84, 150.3 18.91, 158.61 27.16 C166.92 35.4, 172.91 46.56, 177.05 57.76 C181.19 68.95, 183.62 82.46, 183.47 94.32 C183.31 106.19, 180.54 118.4, 176.13 128.97 C171.73 139.54, 165.25 149.62, 157.06 157.76 C148.88 165.9, 137.98 173.23, 127.02 177.81 C116.06 182.4, 103.1 185.23, 91.29 185.27 C79.49 185.3, 66.99 182.71, 56.19 178.03 C45.39 173.35, 34.89 165.67, 26.48 157.19 C18.07 148.71, 10.17 138.28, 5.75 127.16 C1.34 116.04, -0.44 102.43, -0.02 90.45 C0.41 78.47, 3.79 66.02, 8.28 55.28 C12.78 44.53, 18.11 34.39, 26.97 26 C35.83 17.61, 54.81 8.5, 61.43 4.93 C68.05 1.35, 65.95 2.97, 66.69 4.55 M89.21 -0.03 C100.29 -1.81, 115.04 1.06, 125.94 5.45 C136.84 9.83, 146.53 18.18, 154.61 26.28 C162.69 34.37, 169.5 43.65, 174.41 54.02 C179.31 64.4, 183.42 76.63, 184.04 88.5 C184.66 100.36, 182.16 113.87, 178.14 125.23 C174.11 136.58, 167.78 147.89, 159.89 156.63 C151.99 165.36, 141.82 173.11, 130.78 177.63 C119.74 182.16, 105.47 183.46, 93.64 183.75 C81.82 184.04, 70.79 183.29, 59.82 179.37 C48.85 175.46, 36.4 168.45, 27.84 160.27 C19.28 152.1, 13.04 141.14, 8.49 130.32 C3.94 119.5, 0.75 107.35, 0.53 95.36 C0.31 83.36, 3.21 69.59, 7.15 58.35 C11.1 47.11, 16.35 36.41, 24.2 27.89 C32.04 19.37, 43.36 11.9, 54.21 7.23 C65.06 2.55, 83.27 0.92, 89.32 -0.16 C95.36 -1.24, 90.22 -0.98, 90.47 0.75" stroke="#1e1e1e" stroke-width="2" fill="none"></path></g><g transform="translate(125.12949719517235 940.9289380397443) rotate(0 55.95994567871094 37.5)"><text x="55.95994567871094" y="17.52" font-family="Virgil, Segoe UI Emoji" font-size="20px" fill="#1e1e1e" text-anchor="middle" style="white-space: pre;" direction="ltr" dominant-baseline="alphabetic">Checkpoint </text><text x="55.95994567871094" y="42.519999999999996" font-family="Virgil, Segoe UI Emoji" font-size="20px" fill="#1e1e1e" text-anchor="middle" style="white-space: pre;" direction="ltr" dominant-baseline="alphabetic">or process </text><text x="55.95994567871094" y="67.52" font-family="Virgil, Segoe UI Emoji" font-size="20px" fill="#1e1e1e" text-anchor="middle" style="white-space: pre;" direction="ltr" dominant-baseline="alphabetic">step</text></g><g transform="translate(42.90623425861554 135.09186252227568) rotate(0 117.0119400024414 17.5)"><text x="0" y="24.528" font-family="Virgil, Segoe UI Emoji" font-size="28px" fill="#1e1e1e" text-anchor="start" style="white-space: pre;" direction="ltr" dominant-baseline="alphabetic">Subtitles/Legend:</text></g><g transform="translate(400.33076595267187 130.86232224890847) rotate(0 27.999984741210938 17.5)"><text x="0" y="24.528" font-family="Virgil, Segoe UI Emoji" font-size="28px" fill="#1e1e1e" text-anchor="start" style="white-space: pre;" direction="ltr" dominant-baseline="alphabetic">Flow</text></g><g stroke-linecap="round"><g transform="translate(691.8377060426878 1372.3881137828275) rotate(0 1.9778255364998358 92.87809228456786)"><path d="M0.46 -0.12 C1.09 30.86, 3.93 153.95, 4.47 184.85 M-0.75 -1.23 C-0.3 29.97, 3.21 154.66, 3.79 185.91" stroke="#1e1e1e" stroke-width="2" fill="none"></path></g><g transform="translate(691.8377060426878 1372.3881137828275) rotate(0 1.9778255364998358 92.87809228456786)"><path d="M-5.32 162.62 C-2.45 171.83, -0.48 178.87, 3.79 185.91 M-5.32 162.62 C-2.07 168.65, -0.7 173.62, 3.79 185.91" stroke="#1e1e1e" stroke-width="2" fill="none"></path></g><g transform="translate(691.8377060426878 1372.3881137828275) rotate(0 1.9778255364998358 92.87809228456786)"><path d="M11.78 162.22 C8.48 171.63, 4.29 178.82, 3.79 185.91 M11.78 162.22 C10.65 168.43, 7.64 173.5, 3.79 185.91" stroke="#1e1e1e" stroke-width="2" fill="none"></path></g></g><mask></mask><g stroke-linecap="round" transform="translate(598.4567547240017 1579.0764856564783) rotate(0 96.88606008071781 93.08235049737505)"><path d="M121.25 23.5 C134.31 35.1, 145.04 47.43, 169.52 70.5 M121.25 23.5 C131.88 32.81, 141.07 42.26, 169.52 70.5 M169.52 70.5 C192.98 94.64, 195.28 95.66, 169.52 117.5 M169.52 70.5 C193.84 95.48, 192.23 92.92, 169.52 117.5 M169.52 117.5 C154.05 133.5, 137.42 147.82, 121.25 162.66 M169.52 117.5 C150.61 133.32, 133.09 150.66, 121.25 162.66 M121.25 162.66 C98.2 184.22, 95.34 187.82, 72.75 162.66 M121.25 162.66 C99.17 186.38, 97.14 185.07, 72.75 162.66 M72.75 162.66 C53.59 146.95, 33.12 129.43, 24.25 117.5 M72.75 162.66 C53.22 144.57, 35.01 127.63, 24.25 117.5 M24.25 117.5 C0.04 93.76, 0.02 93.2, 24.25 70.5 M24.25 117.5 C0.57 92.59, 1.33 96.07, 24.25 70.5 M24.25 70.5 C41.69 53.21, 58.19 37.68, 72.75 23.5 M24.25 70.5 C42.07 53.28, 61.34 35.91, 72.75 23.5 M72.75 23.5 C96.59 -1.99, 98 1.6, 121.25 23.5 M72.75 23.5 C96.08 -2.21, 94.96 -1.43, 121.25 23.5" stroke="#1e1e1e" stroke-width="2" fill="none"></path></g><g transform="translate(670.2398116198294 1659.6176609051658) rotate(0 25.15997314453125 12.5)"><text x="25.15997314453125" y="17.52" font-family="Virgil, Segoe UI Emoji" font-size="20px" fill="#1e1e1e" text-anchor="middle" style="white-space: pre;" direction="ltr" dominant-baseline="alphabetic">Finish</text></g><g transform="translate(797.7220824724131 1639.796472109104) rotate(0 17.22998809814453 12.5)"><text x="0" y="17.52" font-family="Virgil, Segoe UI Emoji" font-size="20px" fill="#e03131" text-anchor="start" style="white-space: pre;" direction="ltr" dominant-baseline="alphabetic">Fail</text></g><g stroke-linecap="round" transform="translate(926.7308637334486 1645.4063963210747) rotate(0 98.96032844421302 32.132411423688154)"><path d="M16.07 0 C72.5 -0.84, 130.19 -1.97, 181.85 0 M181.85 0 C192.17 -1.5, 197.86 5.54, 197.92 16.07 M197.92 16.07 C199.39 25.91, 196.11 38.22, 197.92 48.2 M197.92 48.2 C199.91 60.27, 191.35 63.56, 181.85 64.26 M181.85 64.26 C138.62 61.43, 97.52 63.84, 16.07 64.26 M16.07 64.26 C6.4 65.63, -1.58 58.45, 0 48.2 M0 48.2 C1.47 36.37, 1.37 25.13, 0 16.07 M0 16.07 C1.94 6.57, 3.47 0.81, 16.07 0" stroke="#e03131" stroke-width="2.5" fill="none" stroke-dasharray="8 10"></path></g><g transform="translate(967.8712458885991 1665.0388077447628) rotate(0 57.8199462890625 12.5)"><text x="57.8199462890625" y="17.52" font-family="Virgil, Segoe UI Emoji" font-size="20px" fill="#e03131" text-anchor="middle" style="white-space: pre;" direction="ltr" dominant-baseline="alphabetic">Throw error</text></g><g stroke-linecap="round"><g transform="translate(802.8253465824623 1671.9893694545945) rotate(0 55.35077300611238 -1.1665486948743364)"><path d="M-0.87 -0.24 C17.46 -0.63, 91.19 -2.11, 109.8 -2.37 M0.87 -1.41 C19.59 -1.6, 93.83 -0.44, 112.04 -0.85" stroke="#e03131" stroke-width="2" fill="none"></path></g><g transform="translate(802.8253465824623 1671.9893694545945) rotate(0 55.35077300611238 -1.1665486948743364)"><path d="M88.56 7.72 C94.83 3.95, 101.83 3.2, 112.04 -0.85 M88.56 7.72 C97.29 4.15, 103.67 1.89, 112.04 -0.85" stroke="#e03131" stroke-width="2" fill="none"></path></g><g transform="translate(802.8253465824623 1671.9893694545945) rotate(0 55.35077300611238 -1.1665486948743364)"><path d="M88.54 -9.38 C94.82 -8.29, 101.82 -4.19, 112.04 -0.85 M88.54 -9.38 C97.29 -7.11, 103.68 -3.53, 112.04 -0.85" stroke="#e03131" stroke-width="2" fill="none"></path></g></g><mask></mask><g transform="translate(611.9795413108777 1775.8788702484235) rotate(0 38.21873751553619 12.529103889425528)"><text x="0" y="17.560792011418897" font-family="Virgil, Segoe UI Emoji" font-size="20.046566223080934px" fill="#2f9e44" text-anchor="start" style="white-space: pre;" direction="ltr" dominant-baseline="alphabetic">Success</text></g><g stroke-linecap="round"><g transform="translate(701.0863399629532 1782.0407202105227) rotate(0 1.7849187538033675 47.2765046075275)"><path d="M-1.13 0.4 C-0.81 16.01, 2.34 78.33, 3.08 94.04 M0.47 -0.44 C0.5 15.31, 1.56 79.24, 1.88 95.3" stroke="#2f9e44" stroke-width="2" fill="none"></path></g><g transform="translate(701.0863399629532 1782.0407202105227) rotate(0 1.7849187538033675 47.2765046075275)"><path d="M-7.09 71.96 C-2.85 80.38, -0.86 89.89, 1.88 95.3 M-7.09 71.96 C-5.12 79.72, -1.3 86.61, 1.88 95.3" stroke="#2f9e44" stroke-width="2" fill="none"></path></g><g transform="translate(701.0863399629532 1782.0407202105227) rotate(0 1.7849187538033675 47.2765046075275)"><path d="M10.01 71.66 C7.55 80.04, 2.84 89.67, 1.88 95.3 M10.01 71.66 C6.77 79.67, 5.38 86.65, 1.88 95.3" stroke="#2f9e44" stroke-width="2" fill="none"></path></g></g><mask></mask><g stroke-linecap="round" transform="translate(522.8947646344745 158.90151545462044) rotate(0 591.1606186658012 465.00247571072487)"><path d="M32 0 C329.63 -3.49, 627.12 -3.72, 1150.32 0 M32 0 C476.18 -0.97, 920.39 -0.7, 1150.32 0 M1150.32 0 C1170.34 -0.21, 1183.39 12.66, 1182.32 32 M1150.32 0 C1171.81 0.68, 1181.54 12.61, 1182.32 32 M1182.32 32 C1179.51 309.75, 1179.65 586.28, 1182.32 898 M1182.32 32 C1185.7 317.88, 1185.13 603.98, 1182.32 898 M1182.32 898 C1181.63 917.65, 1172.49 931.09, 1150.32 930 M1182.32 898 C1181.56 917.54, 1172.93 930.86, 1150.32 930 M1150.32 930 C871.04 928.02, 589.78 927.73, 32 930 M1150.32 930 C854.41 931.19, 557.84 931.18, 32 930 M32 930 C12.37 928.26, -1.7 920.71, 0 898 M32 930 C10.69 931.27, 0.13 920.51, 0 898 M0 898 C1.71 614.21, 0.75 331.08, 0 32 M0 898 C2.86 577.55, 2.81 256.54, 0 32 M0 32 C0.33 10.01, 10.62 -1.55, 32 0 M0 32 C-0.65 11.06, 11.81 0.88, 32 0" stroke="#1e1e1e" stroke-width="2" fill="none"></path></g><g stroke-linecap="round" transform="translate(608.1798498547357 1900.3147959805058) rotate(0 90.39069999327137 73.18550967423596)"><path d="M32 0 C59.4 -1.79, 85.75 -0.73, 148.78 0 M32 0 C56.28 -1.06, 80.14 -0.92, 148.78 0 M148.78 0 C171.25 -0.88, 179.12 9.88, 180.78 32 M148.78 0 C171.3 0.99, 182.64 9.26, 180.78 32 M180.78 32 C181.21 62.03, 181.26 90.44, 180.78 114.37 M180.78 32 C180.21 61.99, 180.09 90.02, 180.78 114.37 M180.78 114.37 C180.21 134.19, 170.79 147.42, 148.78 146.37 M180.78 114.37 C182.72 135.67, 169.74 146.97, 148.78 146.37 M148.78 146.37 C116.31 145.12, 87.6 143.97, 32 146.37 M148.78 146.37 C111.2 145.93, 71.39 146.69, 32 146.37 M32 146.37 C12.46 145.11, -0.45 135.83, 0 114.37 M32 146.37 C11.48 145.33, 0.23 137.49, 0 114.37 M0 114.37 C-2.47 86.82, -1.45 54.56, 0 32 M0 114.37 C-0.73 87.06, -0.5 60.27, 0 32 M0 32 C-1.84 12.58, 11.94 0.68, 32 0 M0 32 C1.25 12.28, 12.02 -1.56, 32 0" stroke="#1e1e1e" stroke-width="2" fill="none"></path></g><g transform="translate(630.2306145452726 1961.0003056547416) rotate(0 68.33993530273438 12.5)"><text x="68.33993530273438" y="17.52" font-family="Virgil, Segoe UI Emoji" font-size="20px" fill="#1e1e1e" text-anchor="middle" style="white-space: pre;" direction="ltr" dominant-baseline="alphabetic">Console paths</text></g><g stroke-linecap="round" transform="translate(522.7113824759062 1114.7094644911772) rotate(0 590.9445067051379 352.0182291666665)"><path d="M32 0 C371.27 2.46, 709.64 3.16, 1149.89 0 M32 0 C466.7 0.4, 901.92 -0.1, 1149.89 0 M1149.89 0 C1170.43 -0.41, 1181.33 9.98, 1181.89 32 M1149.89 0 C1171.97 1.55, 1180.5 12.16, 1181.89 32 M1181.89 32 C1181.29 242.35, 1182.51 452.17, 1181.89 672.04 M1181.89 32 C1180 265.23, 1180.13 497.88, 1181.89 672.04 M1181.89 672.04 C1180.37 693.88, 1170.55 702.84, 1149.89 704.04 M1181.89 672.04 C1181.26 694.51, 1170.04 703.9, 1149.89 704.04 M1149.89 704.04 C838.89 701.21, 526.47 701.98, 32 704.04 M1149.89 704.04 C729.2 702.16, 308.35 702.33, 32 704.04 M32 704.04 C8.7 702.12, 1.81 691.74, 0 672.04 M32 704.04 C12.54 703.44, -1.46 695, 0 672.04 M0 672.04 C0.47 458.85, 0.5 243.37, 0 32 M0 672.04 C0.23 537.66, -0.2 402.97, 0 32 M0 32 C1.93 11.19, 10.35 -1.89, 32 0 M0 32 C1.21 12.3, 9.85 2.03, 32 0" stroke="#1e1e1e" stroke-width="2" fill="none"></path></g><g transform="translate(1488.8988910355408 179.89045455224527) rotate(0 92.31991577148449 12.5)"><text x="0" y="17.52" font-family="Virgil, Segoe UI Emoji" font-size="20px" fill="#1971c2" text-anchor="start" style="white-space: pre;" direction="ltr" dominant-baseline="alphabetic">actions/scaffold.js</text></g><g transform="translate(1363.8239751005144 1137.5407034241086) rotate(0 156.56985473632812 12.5)"><text x="0" y="17.52" font-family="Virgil, Segoe UI Emoji" font-size="20px" fill="#1971c2" text-anchor="start" style="white-space: pre;" direction="ltr" dominant-baseline="alphabetic">generators/scaffold-template.js</text></g><g stroke-linecap="round" transform="translate(520.0932085665186 1840.9866898873456) rotate(0 590.6656035402646 135.23375496031758)"><path d="M32 0 C402.74 -2.59, 772.2 -2.95, 1149.33 0 M32 0 C302.05 1.14, 571.89 1.5, 1149.33 0 M1149.33 0 C1170.75 1.41, 1182.41 10.19, 1181.33 32 M1149.33 0 C1170.14 -0.5, 1181.79 9.04, 1181.33 32 M1181.33 32 C1181.01 105.23, 1182.06 177.73, 1181.33 238.47 M1181.33 32 C1179.68 80.62, 1180.5 128.15, 1181.33 238.47 M1181.33 238.47 C1181.95 260.74, 1168.99 268.57, 1149.33 270.47 M1181.33 238.47 C1182.52 260.98, 1168.81 270.89, 1149.33 270.47 M1149.33 270.47 C743.08 267.23, 336.78 267.07, 32 270.47 M1149.33 270.47 C751.2 270.62, 353.06 271.19, 32 270.47 M32 270.47 C9.78 272.06, -1.67 259.71, 0 238.47 M32 270.47 C11.53 272.68, -0.37 259.81, 0 238.47 M0 238.47 C-0.2 173.42, -1.06 106.28, 0 32 M0 238.47 C1.5 174.32, 0.64 109.07, 0 32 M0 32 C-0.64 12.23, 12.38 -0.08, 32 0 M0 32 C-1.8 11.52, 10.01 0.15, 32 0" stroke="#1e1e1e" stroke-width="2" fill="none"></path></g><g transform="translate(1490.1382001240493 1864.330048967524) rotate(0 92.31991577148426 12.5)"><text x="0" y="17.52" font-family="Virgil, Segoe UI Emoji" font-size="20px" fill="#1971c2" text-anchor="start" style="white-space: pre;" direction="ltr" dominant-baseline="alphabetic">actions/scaffold.js</text></g><g stroke-linecap="round" transform="translate(1277.0345165625463 1329.4149474868993) rotate(0 86.69426116738782 63.65924901986136)"><path d="M31.83 0 C71.34 0.01, 105.94 -0.24, 141.56 0 M31.83 0 C55.06 0.05, 80.76 -0.98, 141.56 0 M141.56 0 C161.52 1.96, 172.43 11.78, 173.39 31.83 M141.56 0 C163.8 1.44, 172.11 11.41, 173.39 31.83 M173.39 31.83 C172.4 51.46, 173.08 72.27, 173.39 95.49 M173.39 31.83 C173.8 45.75, 173.55 58.47, 173.39 95.49 M173.39 95.49 C172.88 117.14, 163.57 126.91, 141.56 127.32 M173.39 95.49 C173.47 116.92, 160.77 127.95, 141.56 127.32 M141.56 127.32 C113.03 127.95, 85.08 128.53, 31.83 127.32 M141.56 127.32 C101.09 128.28, 62.86 127.74, 31.83 127.32 M31.83 127.32 C12.09 127.95, 0.34 116.44, 0 95.49 M31.83 127.32 C12.1 129.45, 1.88 116.87, 0 95.49 M0 95.49 C-1.09 69.92, 0.89 47.57, 0 31.83 M0 95.49 C0.81 74.25, 0.23 54.37, 0 31.83 M0 31.83 C1.82 10.55, 9.38 1.89, 31.83 0 M0 31.83 C-1.96 10.39, 8.46 -1.66, 31.83 0" stroke="#1e1e1e" stroke-width="2" fill="none"></path></g><g transform="translate(1286.4888409013208 1368.0741965067607) rotate(0 77.23993682861328 25)"><text x="77.23993682861328" y="17.52" font-family="Virgil, Segoe UI Emoji" font-size="20px" fill="#1e1e1e" text-anchor="middle" style="white-space: pre;" direction="ltr" dominant-baseline="alphabetic">Get templates </text><text x="77.23993682861328" y="42.519999999999996" font-family="Virgil, Segoe UI Emoji" font-size="20px" fill="#1e1e1e" text-anchor="middle" style="white-space: pre;" direction="ltr" dominant-baseline="alphabetic">data from files</text></g><g stroke-linecap="round"><g transform="translate(1360.567554820803 1251.2601824274204) rotate(0 0.9001859788143065 33.67708917465109)"><path d="M0.35 -0.96 C0.68 10.46, 2.43 56.16, 2.5 67.6 M-0.93 1.14 C-0.73 12.26, 1.24 54.26, 1.92 65.6" stroke="#1e1e1e" stroke-width="2" fill="none"></path></g><g transform="translate(1360.567554820803 1251.2601824274204) rotate(0 0.9001859788143065 33.67708917465109)"><path d="M-7.84 42.58 C-6.3 51.58, -0.95 56.54, 1.92 65.6 M-7.84 42.58 C-5.11 51.17, -1.77 58.31, 1.92 65.6" stroke="#1e1e1e" stroke-width="2" fill="none"></path></g><g transform="translate(1360.567554820803 1251.2601824274204) rotate(0 0.9001859788143065 33.67708917465109)"><path d="M9.24 41.7 C4.94 51.04, 4.45 56.31, 1.92 65.6 M9.24 41.7 C6.38 50.45, 4.14 57.87, 1.92 65.6" stroke="#1e1e1e" stroke-width="2" fill="none"></path></g></g><mask></mask><g stroke-linecap="round" transform="translate(1278.356685347993 1642.351930803215) rotate(0 98.9603284442129 32.132411423688154)"><path d="M16.07 0 C76.53 0.87, 138.63 -2.82, 181.85 0 M181.85 0 C190.63 1.27, 199.9 3.38, 197.92 16.07 M197.92 16.07 C198.61 23.94, 197.83 34.69, 197.92 48.2 M197.92 48.2 C196.15 58.07, 191.72 66.06, 181.85 64.26 M181.85 64.26 C137.49 66.79, 92.05 64.58, 16.07 64.26 M16.07 64.26 C3.63 63.85, -1.7 57.67, 0 48.2 M0 48.2 C0.13 38.99, -1.52 30.81, 0 16.07 M0 16.07 C-0.69 3.52, 4.91 1.53, 16.07 0" stroke="#e03131" stroke-width="2.5" fill="none" stroke-dasharray="8 10"></path></g><g transform="translate(1312.6870775739444 1661.9843422269032) rotate(0 64.62993621826172 12.5)"><text x="64.62993621826172" y="17.52" font-family="Virgil, Segoe UI Emoji" font-size="20px" fill="#e03131" text-anchor="middle" style="white-space: pre;" direction="ltr" dominant-baseline="alphabetic">Console error</text></g><g stroke-linecap="round"><g transform="translate(1140.4346240793602 1674.710344092572) rotate(0 62.14937135170044 -0.18730258924415466)"><path d="M-1.16 -1.16 C19.51 -0.83, 104.35 0.72, 125.06 0.81 M0.43 0.84 C20.91 0.97, 103.69 -0.65, 124.52 -0.69" stroke="#e03131" stroke-width="2" fill="none"></path></g><g transform="translate(1140.4346240793602 1674.710344092572) rotate(0 62.14937135170044 -0.18730258924415466)"><path d="M101.12 8.13 C108.34 6.21, 121.33 -0.46, 124.52 -0.69 M101.12 8.13 C108.21 5.11, 114.43 3.46, 124.52 -0.69" stroke="#e03131" stroke-width="2" fill="none"></path></g><g transform="translate(1140.4346240793602 1674.710344092572) rotate(0 62.14937135170044 -0.18730258924415466)"><path d="M100.93 -8.97 C108.05 -4.25, 121.12 -4.29, 124.52 -0.69 M100.93 -8.97 C107.97 -7.16, 114.24 -3.99, 124.52 -0.69" stroke="#e03131" stroke-width="2" fill="none"></path></g></g><mask></mask><g stroke-linecap="round" transform="translate(1294.947087839446 585.3422384517762) rotate(0 98.9603284442129 32.1324114236881)"><path d="M16.07 0 C81.32 1.53, 147.06 -0.2, 181.85 0 M181.85 0 C191.69 0.82, 197.93 3.39, 197.92 16.07 M197.92 16.07 C197.8 28.55, 196.33 39.78, 197.92 48.2 M197.92 48.2 C197.73 60.69, 191.51 62.68, 181.85 64.26 M181.85 64.26 C147.23 66.59, 113.23 66.54, 16.07 64.26 M16.07 64.26 C7.25 64.33, -0.47 60.34, 0 48.2 M0 48.2 C-1.02 41.7, -0.97 29.68, 0 16.07 M0 16.07 C0.04 4.28, 4.91 1.22, 16.07 0" stroke="#e03131" stroke-width="2.5" fill="none" stroke-dasharray="8 10"></path></g><g transform="translate(1329.2774800653974 604.9746498754644) rotate(0 64.62993621826172 12.5)"><text x="64.62993621826172" y="17.52" font-family="Virgil, Segoe UI Emoji" font-size="20px" fill="#e03131" text-anchor="middle" style="white-space: pre;" direction="ltr" dominant-baseline="alphabetic">Console error</text></g><g stroke-linecap="round"><g transform="translate(1150.4147835152573 617.7006517411337) rotate(0 65.45449287947827 -0.18730258924415466)"><path d="M-0.33 -0.52 C21.45 -0.52, 109.72 -0.55, 131.4 -0.37 M1.7 1.82 C23.3 2.05, 108.99 1.69, 130.71 1.17" stroke="#e03131" stroke-width="2" fill="none"></path></g><g transform="translate(1150.4147835152573 617.7006517411337) rotate(0 65.45449287947827 -0.18730258924415466)"><path d="M107.33 10.01 C114.88 7.72, 124.15 1.76, 130.71 1.17 M107.33 10.01 C116.02 6.84, 124.13 3.04, 130.71 1.17" stroke="#e03131" stroke-width="2" fill="none"></path></g><g transform="translate(1150.4147835152573 617.7006517411337) rotate(0 65.45449287947827 -0.18730258924415466)"><path d="M107.11 -7.09 C114.69 -3.24, 124.04 -3.06, 130.71 1.17 M107.11 -7.09 C115.95 -3.79, 124.14 -1.13, 130.71 1.17" stroke="#e03131" stroke-width="2" fill="none"></path></g></g><mask></mask></svg>