<?xml version="1.0" encoding="iso-8859-1"?>
<!-- Generator: Adobe Illustrator 19.1.1, SVG Export Plug-In . SVG Version: 6.00 Build 0)  -->
<svg version="1.1" id="Layer_1" xmlns="http://www.w3.org/2000/svg" xmlns:xlink="http://www.w3.org/1999/xlink" x="0px" y="0px"
	 viewBox="0 0 40 40" style="enable-background:new 0 0 40 40;" xml:space="preserve">
<g>
	<path style="fill:#36404D;" d="M3.224,9.98l28.284,0.022l0.065,0L31.61,10c0.168,0,1.034,0.029,1.635,0.597
		c0.442,0.419,0.657,1.019,0.657,1.836c0,10.968,2.173,16.982,2.755,17.993c0.906,1.571,1.824,3.727,1.054,5.081
		C37.188,36.428,35.766,37,34.021,37l-8.614-0.181C17.045,36.819,2,18.34,2,12c0-1.232,0.894-1.903,1.204-2.018L3.224,9.98
		 M3.163,8.98L3,9c-0.648,0.162-2,1.187-2,3c0,6.832,15.407,25.819,24.407,25.819L34,38c2.205,0,3.895-0.792,4.581-1.999
		c0.806-1.417,0.449-3.461-1.058-6.075c-0.52-0.902-2.622-6.85-2.622-17.493c0-1.091-0.326-1.952-0.969-2.562
		C33.08,9.065,31.95,9,31.61,9c-0.062,0-0.098,0.002-0.101,0.002L3.163,8.98L3.163,8.98z"/>
</g>
<g>
	<path style="fill:#788B9C;" d="M5,37.5c-0.275,0-0.5-0.224-0.5-0.5V8c0-0.276,0.225-0.5,0.5-0.5h24c0.275,0,0.5,0.224,0.5,0.5v29
		c0,0.276-0.225,0.5-0.5,0.5H5z"/>
	<g>
		<path style="fill:#66798F;" d="M29,8v29H5V8H29 M29,7H5C4.448,7,4,7.448,4,8v29c0,0.552,0.448,1,1,1h24c0.552,0,1-0.448,1-1V8
			C30,7.448,29.552,7,29,7L29,7z"/>
	</g>
</g>
<g>
	<rect x="6.5" y="1.5" style="fill:#E1EBF2;" width="21" height="22"/>
	<path style="fill:#A3B7CC;" d="M27,2v21H7V2H27 M28,1H6v23h22V1L28,1z"/>
</g>
<g>
	<rect x="9.5" y="1.5" style="fill:#8BB7F0;" width="15" height="11"/>
	<path style="fill:#4E7AB5;" d="M24,2v10H10V2H24 M25,1H9v12h16V1L25,1z"/>
</g>
<circle style="fill:#4E7AB5;" cx="22" cy="10" r="1"/>
<g>
	<rect x="9.5" y="15.5" style="fill:#8BB7F0;" width="8" height="4"/>
	<path style="fill:#4E7AB5;" d="M17,16v3h-7v-3H17 M18,15H9v5h9V15L18,15z"/>
</g>
<g>
	<path style="fill:#8BB7F0;" d="M22.5,19.5c-1.141,0-2-0.86-2-2s0.859-2,2-2s2,0.86,2,2S23.64,19.5,22.5,19.5z"/>
	<path style="fill:#4E7AB5;" d="M22.5,16c0.869,0,1.5,0.631,1.5,1.5S23.369,19,22.5,19S21,18.369,21,17.5S21.631,16,22.5,16
		 M22.5,15c-1.417,0-2.5,1.083-2.5,2.5c0,1.417,1.083,2.5,2.5,2.5c1.417,0,2.5-1.083,2.5-2.5C25,16.083,23.917,15,22.5,15L22.5,15z"
		/>
</g>
<g>
	<rect x="21.5" y="3.5" style="fill:#839CB2;" width="1" height="1"/>
	<polygon style="fill:#36404D;" points="23,3 21,3 21,5 23,5 23,3 	"/>
</g>
<g>
	<rect x="21.5" y="6.5" style="fill:#839CB2;" width="1" height="1"/>
	<polygon style="fill:#36404D;" points="23,6 21,6 21,8 23,8 23,6 	"/>
</g>
<rect x="8" y="28" style="fill:#E1EBF2;" width="1" height="9"/>
<rect x="25" y="28" style="fill:#E1EBF2;" width="1" height="9"/>
<rect x="11" y="16" style="fill:#C2E8FF;" width="1" height="3"/>
<rect x="13" y="16" style="fill:#C2E8FF;" width="1" height="3"/>
<rect x="15" y="16" style="fill:#C2E8FF;" width="1" height="3"/>
<rect x="8" y="37" style="fill:#A3B7CC;" width="1" height="1"/>
<rect x="25" y="37" style="fill:#A3B7CC;" width="1" height="1"/>
<g>
	<rect x="12.5" y="3.5" style="fill:#839CB2;" width="7" height="6"/>
	<g>
		<path style="fill:#66798F;" d="M19,4v5h-6V4H19 M20,3h-8v7h8V3L20,3z"/>
	</g>
</g>
<g>
	<polygon style="fill:#A3B7CC;" points="29,28 5,28 6,22 28,22 	"/>
</g>
</svg>
